<svg width="161" height="346" viewBox="0 0 161 346" fill="none" xmlns="http://www.w3.org/2000/svg">
<path d="M60.9162 338.983H33.24V52.2944L60.9162 8.65869V338.983Z" fill="#51B27E" stroke="white" stroke-width="5" stroke-miterlimit="10"/>
<path d="M60.4327 342.946H33.2398C31.0543 342.946 29.2891 341.175 29.2891 338.983C29.2891 336.791 31.0543 335.02 33.2398 335.02H60.4327C62.6182 335.02 64.3834 336.791 64.3834 338.983C64.3834 341.175 62.6182 342.946 60.4327 342.946Z" fill="#51B27E" stroke="white" stroke-width="5" stroke-miterlimit="10"/>
<path d="M60.4327 252.681H33.2398C31.0543 252.681 29.2891 250.91 29.2891 248.718C29.2891 246.526 31.0543 244.755 33.2398 244.755H60.4327C62.6182 244.755 64.3834 246.526 64.3834 248.718C64.3834 250.91 62.6182 252.681 60.4327 252.681Z" fill="#51B27E" stroke="white" stroke-width="5" stroke-miterlimit="10"/>
<path d="M60.4327 162.417H33.2398C31.0543 162.417 29.2891 160.646 29.2891 158.454C29.2891 156.261 31.0543 154.49 33.2398 154.49H60.4327C62.6182 154.49 64.3834 156.261 64.3834 158.454C64.3834 160.625 62.6182 162.417 60.4327 162.417Z" fill="#51B27E" stroke="white" stroke-width="5" stroke-miterlimit="10"/>
<path d="M60.4327 72.1308H33.2398C31.0543 72.1308 29.2891 70.3601 29.2891 68.1678C29.2891 65.9754 31.0543 64.2047 33.2398 64.2047H60.4327C62.6182 64.2047 64.3834 65.9754 64.3834 68.1678C64.3834 70.3601 62.6182 72.1308 60.4327 72.1308Z" fill="#51B27E" stroke="white" stroke-width="5" stroke-miterlimit="10"/>
<path d="M90.6098 37.8968C90.6098 37.8968 64.3835 35.4515 64.3835 64.2047C93.0474 64.2047 90.6098 37.8968 90.6098 37.8968Z" fill="#51B27E" stroke="white" stroke-width="5" stroke-miterlimit="10"/>
<path d="M29.2262 158.39C29.2262 158.39 31.6639 132.082 3 132.082C3 160.836 29.2262 158.39 29.2262 158.39Z" fill="#51B27E" stroke="white" stroke-width="5" stroke-miterlimit="10"/>
<path d="M90.6098 222.41C90.6098 222.41 64.3835 219.965 64.3835 248.718C93.0474 248.718 90.6098 222.41 90.6098 222.41Z" fill="#51B27E" stroke="white" stroke-width="5" stroke-miterlimit="10"/>
<path d="M128.163 339.594H100.487V96.3516L128.163 59.314V339.594Z" fill="#51B27E" stroke="white" stroke-width="5" stroke-miterlimit="10"/>
<path d="M128.268 342.946H99.8772C98.0279 342.946 96.5149 341.428 96.5149 339.573C96.5149 337.718 98.0279 336.2 99.8772 336.2H128.268C130.117 336.2 131.63 337.718 131.63 339.573C131.63 341.449 130.117 342.946 128.268 342.946Z" fill="#51B27E" stroke="white" stroke-width="5" stroke-miterlimit="10"/>
<path d="M128.268 266.362H99.8772C98.0279 266.362 96.5149 264.844 96.5149 262.989C96.5149 261.134 98.0279 259.617 99.8772 259.617H128.268C130.117 259.617 131.63 261.134 131.63 262.989C131.63 264.866 130.117 266.362 128.268 266.362Z" fill="#51B27E" stroke="white" stroke-width="5" stroke-miterlimit="10"/>
<path d="M128.268 189.778H99.8772C98.0279 189.778 96.5149 188.261 96.5149 186.406C96.5149 184.551 98.0279 183.033 99.8772 183.033H128.268C130.117 183.033 131.63 184.551 131.63 186.406C131.63 188.261 130.117 189.778 128.268 189.778Z" fill="#51B27E" stroke="white" stroke-width="5" stroke-miterlimit="10"/>
<path d="M128.268 113.195H99.8772C98.0279 113.195 96.5149 111.677 96.5149 109.822C96.5149 107.967 98.0279 106.449 99.8772 106.449H128.268C130.117 106.449 131.63 107.967 131.63 109.822C131.63 111.677 130.117 113.195 128.268 113.195Z" fill="#51B27E" stroke="white" stroke-width="5" stroke-miterlimit="10"/>
<path d="M157.857 84.1253C157.857 84.1253 131.63 82.0384 131.63 106.449C160.294 106.449 157.857 84.1253 157.857 84.1253Z" fill="#51B27E" stroke="white" stroke-width="5" stroke-miterlimit="10"/>
<path d="M96.4728 186.364C96.4728 186.364 98.9105 164.04 70.2466 164.04C70.2466 188.45 96.4728 186.364 96.4728 186.364Z" fill="#51B27E" stroke="white" stroke-width="5" stroke-miterlimit="10"/>
<path d="M157.857 240.687C157.857 240.687 131.63 238.6 131.63 263.01C160.294 262.989 157.857 240.687 157.857 240.687Z" fill="#51B27E" stroke="white" stroke-width="5" stroke-miterlimit="10"/>
</svg>
