<svg width="100" height="81" viewBox="0 0 100 81" fill="none" xmlns="http://www.w3.org/2000/svg">
<path d="M89.1518 31.6799C89.1518 7.36152 68.3001 15.557 68.3001 15.557C68.3001 -2.519 31.6655 -2.519 31.6655 15.557C31.6655 15.557 10.8138 7.39982 10.8138 31.6799C-1.01369 34.4755 -5.42981 74.7252 26.9038 69.6701C26.9038 69.6701 33.5472 83.9547 50.0212 77.9422C66.4568 83.9547 73.1386 69.6701 73.1386 69.6701C105.434 74.7252 101.018 34.4755 89.1518 31.6799Z" stroke="white" stroke-width="3" stroke-miterlimit="10"/>
<path d="M59.7852 53.0905C59.7852 53.0905 53.365 40.4001 49.9614 40.4001C46.5579 40.4001 40.1377 53.0905 40.1377 53.0905C35.0324 49.2427 23.1201 52.1286 23.1201 52.1286C23.1201 86.7959 50.0001 77.7314 50.0001 77.7314C50.0001 77.7314 76.8801 86.7959 76.8801 52.1286C76.8414 52.1286 64.9292 49.2427 59.7852 53.0905Z" stroke="white" stroke-width="3" stroke-miterlimit="10"/>
</svg>
