<svg width="16" height="27" viewBox="0 0 16 27" fill="none" xmlns="http://www.w3.org/2000/svg">
<path d="M13.5078 8.39166V20.3565H10.1852V18.9776C9.32296 20.0155 8.0742 20.5344 6.43892 20.5344C5.3091 20.5344 4.28333 20.2823 3.36163 19.7782C2.45479 19.2742 1.74122 18.5551 1.2209 17.621C0.700587 16.687 0.44043 15.6046 0.44043 14.3741C0.44043 13.1435 0.700587 12.0612 1.2209 11.1271C1.74122 10.1931 2.45479 9.47398 3.36163 8.96989C4.28333 8.46579 5.3091 8.21375 6.43892 8.21375C7.97014 8.21375 9.16686 8.6956 10.0291 9.65931V8.39166H13.5078ZM7.041 17.6877C7.9181 17.6877 8.64655 17.3912 9.22633 16.7982C9.80611 16.1903 10.096 15.3823 10.096 14.3741C10.096 13.3659 9.80611 12.5653 9.22633 11.9722C8.64655 11.3643 7.9181 11.0604 7.041 11.0604C6.14903 11.0604 5.41316 11.3643 4.83338 11.9722C4.2536 12.5653 3.96371 13.3659 3.96371 14.3741C3.96371 15.3823 4.2536 16.1903 4.83338 16.7982C5.41316 17.3912 6.14903 17.6877 7.041 17.6877Z" fill="white"/>
</svg>
