<svg width="15" height="27" viewBox="0 0 15 27" fill="none" xmlns="http://www.w3.org/2000/svg">
<path d="M7.96008 20.5344C6.69394 20.5344 5.55295 20.2749 4.5371 19.756C3.53597 19.2223 2.74832 18.4884 2.17414 17.5543C1.61469 16.6202 1.33496 15.5602 1.33496 14.3741C1.33496 13.188 1.61469 12.1279 2.17414 11.1938C2.74832 10.2598 3.53597 9.53328 4.5371 9.01436C5.55295 8.48062 6.69394 8.21375 7.96008 8.21375C9.21149 8.21375 10.301 8.48062 11.2285 9.01436C12.1707 9.53328 12.8553 10.282 13.2823 11.2605L10.6101 12.7061C9.99178 11.609 9.10107 11.0604 7.93799 11.0604C7.03992 11.0604 6.29644 11.3569 5.70754 11.95C5.11864 12.543 4.82419 13.3511 4.82419 14.3741C4.82419 15.3971 5.11864 16.2051 5.70754 16.7982C6.29644 17.3912 7.03992 17.6877 7.93799 17.6877C9.11579 17.6877 10.0065 17.1392 10.6101 16.042L13.2823 17.5098C12.8553 18.4587 12.1707 19.2 11.2285 19.7338C10.301 20.2675 9.21149 20.5344 7.96008 20.5344Z" fill="white"/>
</svg>
