<svg width="15" height="27" viewBox="0 0 15 27" fill="none" xmlns="http://www.w3.org/2000/svg">
<path d="M8.38781 20.5344C7.08211 20.5344 5.90547 20.2749 4.85787 19.756C3.82546 19.2223 3.01319 18.4884 2.42107 17.5543C1.84413 16.6202 1.55566 15.5602 1.55566 14.3741C1.55566 13.188 1.84413 12.1279 2.42107 11.1938C3.01319 10.2598 3.82546 9.53328 4.85787 9.01436C5.90547 8.48062 7.08211 8.21375 8.38781 8.21375C9.67833 8.21375 10.8018 8.48062 11.7583 9.01436C12.73 9.53328 13.436 10.282 13.8763 11.2605L11.1207 12.7061C10.483 11.609 9.56446 11.0604 8.36504 11.0604C7.4389 11.0604 6.67219 11.3569 6.06488 11.95C5.45758 12.543 5.15393 13.3511 5.15393 14.3741C5.15393 15.3971 5.45758 16.2051 6.06488 16.7982C6.67219 17.3912 7.4389 17.6877 8.36504 17.6877C9.57964 17.6877 10.4982 17.1392 11.1207 16.042L13.8763 17.5098C13.436 18.4587 12.73 19.2 11.7583 19.7338C10.8018 20.2675 9.67833 20.5344 8.38781 20.5344Z" fill="white"/>
</svg>
