<svg width="14" height="27" viewBox="0 0 14 27" fill="none" xmlns="http://www.w3.org/2000/svg">
<path d="M7.68274 20.5344C6.37704 20.5344 5.20039 20.2749 4.15279 19.756C3.12038 19.2223 2.30811 18.4884 1.71599 17.5543C1.13905 16.6202 0.850586 15.5602 0.850586 14.3741C0.850586 13.188 1.13905 12.1279 1.71599 11.1938C2.30811 10.2598 3.12038 9.53328 4.15279 9.01436C5.20039 8.48062 6.37704 8.21375 7.68274 8.21375C8.97325 8.21375 10.0968 8.48062 11.0533 9.01436C12.0249 9.53328 12.7309 10.282 13.1712 11.2605L10.4156 12.7061C9.77793 11.609 8.85938 11.0604 7.65996 11.0604C6.73383 11.0604 5.96711 11.3569 5.3598 11.95C4.7525 12.543 4.44885 13.3511 4.44885 14.3741C4.44885 15.3971 4.7525 16.2051 5.3598 16.7982C5.96711 17.3912 6.73383 17.6877 7.65996 17.6877C8.87457 17.6877 9.79311 17.1392 10.4156 16.042L13.1712 17.5098C12.7309 18.4587 12.0249 19.2 11.0533 19.7338C10.0968 20.2675 8.97325 20.5344 7.68274 20.5344Z" fill="white"/>
</svg>
