<svg width="14" height="27" viewBox="0 0 14 27" fill="none" xmlns="http://www.w3.org/2000/svg">
<path d="M7.2052 20.5344C5.8995 20.5344 4.72285 20.2749 3.67525 19.756C2.64284 19.2223 1.83057 18.4884 1.23845 17.5543C0.661515 16.6202 0.373047 15.5602 0.373047 14.3741C0.373047 13.188 0.661515 12.1279 1.23845 11.1938C1.83057 10.2598 2.64284 9.53328 3.67525 9.01436C4.72285 8.48062 5.8995 8.21375 7.2052 8.21375C8.49571 8.21375 9.61922 8.48062 10.5757 9.01436C11.5474 9.53328 12.2534 10.282 12.6937 11.2605L9.93806 12.7061C9.30039 11.609 8.38184 11.0604 7.18242 11.0604C6.25629 11.0604 5.48957 11.3569 4.88227 11.95C4.27496 12.543 3.97131 13.3511 3.97131 14.3741C3.97131 15.3971 4.27496 16.2051 4.88227 16.7982C5.48957 17.3912 6.25629 17.6877 7.18242 17.6877C8.39703 17.6877 9.31557 17.1392 9.93806 16.042L12.6937 17.5098C12.2534 18.4587 11.5474 19.2 10.5757 19.7338C9.61922 20.2675 8.49571 20.5344 7.2052 20.5344Z" fill="white"/>
</svg>
