<svg width="14" height="27" viewBox="0 0 14 27" fill="none" xmlns="http://www.w3.org/2000/svg">
<path d="M7.53356 17.7545C8.16153 17.7545 8.71475 17.6655 9.1932 17.4876C9.68661 17.2948 10.1426 16.9983 10.5613 16.598L12.4228 18.5996C11.2864 19.8894 9.6268 20.5344 7.44385 20.5344C6.08325 20.5344 4.87964 20.2749 3.83302 19.756C2.7864 19.2223 1.97901 18.4884 1.41084 17.5543C0.842676 16.6202 0.558594 15.5602 0.558594 14.3741C0.558594 13.2028 0.8352 12.1501 1.38841 11.2161C1.95658 10.2672 2.72659 9.53328 3.69845 9.01436C4.68526 8.48062 5.79169 8.21375 7.01773 8.21375C8.16901 8.21375 9.21563 8.45838 10.1576 8.94765C11.0995 9.42209 11.8471 10.1189 12.4003 11.0382C12.9685 11.9426 13.2526 13.0175 13.2526 14.2629L4.32642 15.9753C4.5806 16.5684 4.97682 17.0131 5.51508 17.3097C6.0683 17.6062 6.74112 17.7545 7.53356 17.7545ZM7.01773 10.838C6.13558 10.838 5.4179 11.1197 4.86468 11.6831C4.31147 12.2465 4.01991 13.0249 3.99001 14.0182L9.86603 12.884C9.70156 12.2613 9.36515 11.7646 8.85679 11.394C8.34843 11.0233 7.73541 10.838 7.01773 10.838Z" fill="white"/>
</svg>
