<svg width="21" height="27" viewBox="0 0 21 27" fill="none" xmlns="http://www.w3.org/2000/svg">
<path d="M15.0335 8.39343V18.456C15.0335 20.6722 14.4537 22.3193 13.2941 23.3974C12.1345 24.4756 10.4403 25.0146 8.21147 25.0146C7.03682 25.0146 5.92241 24.8724 4.86824 24.5879C3.81407 24.3034 2.94061 23.8916 2.24787 23.3525L3.64841 20.8369C4.16044 21.2561 4.808 21.5856 5.5911 21.8252C6.3742 22.0797 7.1573 22.207 7.9404 22.207C9.16023 22.207 10.0563 21.93 10.6285 21.3759C11.2159 20.8369 11.5095 20.0133 11.5095 18.9052V18.3886C10.5909 19.3919 9.31082 19.8935 7.66933 19.8935C6.55492 19.8935 5.53086 19.6539 4.59717 19.1747C3.67853 18.6806 2.94814 17.9918 2.40599 17.1083C1.86385 16.2249 1.59277 15.2066 1.59277 14.0536C1.59277 12.9006 1.86385 11.8824 2.40599 10.9989C2.94814 10.1154 3.67853 9.43413 4.59717 8.95496C5.53086 8.46082 6.55492 8.21375 7.66933 8.21375C9.4313 8.21375 10.7716 8.79025 11.6902 9.94325V8.39343H15.0335ZM8.3696 17.0185C9.30329 17.0185 10.0638 16.749 10.6511 16.2099C11.2535 15.6558 11.5547 14.9371 11.5547 14.0536C11.5547 13.1702 11.2535 12.4589 10.6511 11.9198C10.0638 11.3658 9.30329 11.0888 8.3696 11.0888C7.4359 11.0888 6.66786 11.3658 6.06548 11.9198C5.46309 12.4589 5.1619 13.1702 5.1619 14.0536C5.1619 14.9371 5.46309 15.6558 6.06548 16.2099C6.66786 16.749 7.4359 17.0185 8.3696 17.0185Z" fill="white"/>
</svg>
