<svg width="16" height="27" viewBox="0 0 16 27" fill="none" xmlns="http://www.w3.org/2000/svg">
<path d="M9.95243 8.21375C11.4911 8.21375 12.7297 8.66505 13.6683 9.56766C14.6223 10.4703 15.0993 11.8091 15.0993 13.5843V20.5344H11.4988V14.1258C11.4988 13.1631 11.2834 12.4485 10.8526 11.9821C10.4217 11.5008 9.79857 11.2601 8.98307 11.2601C8.07526 11.2601 7.35209 11.5384 6.81355 12.095C6.27502 12.6365 6.00575 13.4489 6.00575 14.532V20.5344H2.40527V8.39427H5.84419V9.81588C6.32118 9.3044 6.91357 8.91327 7.62135 8.64248C8.32914 8.35666 9.10616 8.21375 9.95243 8.21375Z" fill="white"/>
</svg>
