<svg width="15" height="27" viewBox="0 0 15 27" fill="none" xmlns="http://www.w3.org/2000/svg">
<path d="M8.26212 20.5344C7.23483 20.5344 6.23053 20.4158 5.24923 20.1786C4.26794 19.9265 3.48597 19.6152 2.90332 19.2445L4.09928 16.7537C4.65126 17.0947 5.31823 17.3764 6.1002 17.5988C6.88217 17.8064 7.64881 17.9101 8.40012 17.9101C9.91806 17.9101 10.677 17.5469 10.677 16.8204C10.677 16.4794 10.47 16.2348 10.0561 16.0865C9.64207 15.9382 9.00576 15.8122 8.14713 15.7084C7.13516 15.5602 6.29953 15.3897 5.64022 15.1969C4.98091 15.0042 4.40593 14.6632 3.91528 14.1739C3.43997 13.6846 3.20231 12.9878 3.20231 12.0834C3.20231 11.3273 3.42463 10.6601 3.86928 10.0819C4.32927 9.48881 4.98858 9.02919 5.84721 8.70301C6.72118 8.37683 7.74847 8.21375 8.9291 8.21375C9.80306 8.21375 10.6694 8.31012 11.528 8.50286C12.402 8.68077 13.1226 8.93282 13.6899 9.259L12.494 11.7276C11.4053 11.1345 10.217 10.838 8.9291 10.838C8.16246 10.838 7.58748 10.9418 7.20416 11.1493C6.82084 11.3569 6.62918 11.6238 6.62918 11.95C6.62918 12.3206 6.83617 12.5801 7.25016 12.7283C7.66414 12.8766 8.32345 13.0175 9.22809 13.1509C10.24 13.314 11.068 13.4919 11.712 13.6846C12.356 13.8626 12.9156 14.1962 13.3909 14.6854C13.8662 15.1747 14.1039 15.8567 14.1039 16.7314C14.1039 17.4728 13.8739 18.1325 13.4139 18.7108C12.9539 19.289 12.2793 19.7412 11.39 20.0674C10.516 20.3787 9.47341 20.5344 8.26212 20.5344Z" fill="white"/>
</svg>
