<svg width="683" height="72" viewBox="0 0 683 72" fill="none" xmlns="http://www.w3.org/2000/svg">
<path d="M19.2994 55C15.8022 55 12.6506 54.3051 9.84473 52.9152C7.07948 51.4856 4.90388 49.5199 3.31793 47.0181C1.77264 44.5162 1 41.6769 1 38.5C1 35.3231 1.77264 32.4838 3.31793 29.9819C4.90388 27.4801 7.07948 25.5343 9.84473 24.1444C12.6506 22.7148 15.8022 22 19.2994 22C22.756 22 25.7653 22.7148 28.3272 24.1444C30.9298 25.5343 32.8207 27.5397 34 30.1607L26.6192 34.0325C24.9113 31.0939 22.451 29.6245 19.2384 29.6245C16.7579 29.6245 14.7043 30.4188 13.0776 32.0072C11.451 33.5957 10.6377 35.7599 10.6377 38.5C10.6377 41.2401 11.451 43.4043 13.0776 44.9928C14.7043 46.5812 16.7579 47.3754 19.2384 47.3754C22.4917 47.3754 24.9519 45.9061 26.6192 42.9675L34 46.8989C32.8207 49.4404 30.9298 51.426 28.3272 52.8556C25.7653 54.2852 22.756 55 19.2994 55Z" fill="white"/>
<path d="M564.299 55C560.802 55 557.651 54.3051 554.845 52.9152C552.079 51.4856 549.904 49.5199 548.318 47.0181C546.773 44.5162 546 41.6769 546 38.5C546 35.3231 546.773 32.4838 548.318 29.9819C549.904 27.4801 552.079 25.5343 554.845 24.1444C557.651 22.7148 560.802 22 564.299 22C567.756 22 570.765 22.7148 573.327 24.1444C575.93 25.5343 577.821 27.5397 579 30.1607L571.619 34.0325C569.911 31.0939 567.451 29.6245 564.238 29.6245C561.758 29.6245 559.704 30.4188 558.078 32.0072C556.451 33.5957 555.638 35.7599 555.638 38.5C555.638 41.2401 556.451 43.4043 558.078 44.9928C559.704 46.5812 561.758 47.3754 564.238 47.3754C567.492 47.3754 569.952 45.9061 571.619 42.9675L579 46.8989C577.821 49.4404 575.93 51.426 573.327 52.8556C570.765 54.2852 567.756 55 564.299 55Z" fill="white"/>
<path d="M528.353 55C525.602 55 522.912 54.6823 520.283 54.0469C517.655 53.3718 515.561 52.5379 514 51.5451L517.203 44.8736C518.682 45.787 520.468 46.5415 522.563 47.1372C524.657 47.6931 526.71 47.9711 528.723 47.9711C532.788 47.9711 534.821 46.9982 534.821 45.0523C534.821 44.139 534.267 43.4838 533.158 43.0866C532.049 42.6895 530.345 42.352 528.045 42.074C525.335 41.6769 523.097 41.2202 521.331 40.704C519.565 40.1877 518.025 39.2744 516.71 37.9639C515.437 36.6534 514.801 34.787 514.801 32.3646C514.801 30.3393 515.396 28.5523 516.587 27.0036C517.819 25.4152 519.585 24.1841 521.885 23.3105C524.226 22.4368 526.977 22 530.14 22C532.48 22 534.801 22.2581 537.101 22.7744C539.441 23.2509 541.372 23.926 542.891 24.7996L539.688 31.4116C536.772 29.8231 533.589 29.0289 530.14 29.0289C528.086 29.0289 526.546 29.3069 525.52 29.8628C524.493 30.4188 523.979 31.1336 523.979 32.0072C523.979 33 524.534 33.6949 525.643 34.0921C526.752 34.4892 528.517 34.8664 530.94 35.2238C533.651 35.6606 535.869 36.1372 537.593 36.6534C539.318 37.13 540.817 38.0235 542.09 39.3339C543.363 40.6444 544 42.4711 544 44.8141C544 46.7996 543.384 48.5668 542.152 50.1155C540.92 51.6643 539.113 52.8755 536.731 53.7491C534.39 54.583 531.598 55 528.353 55Z" fill="white"/>
<path d="M632.922 26.7747C634.04 25.2033 635.537 24.0147 637.413 23.2088C639.329 22.4029 641.525 22 644 22V30.7033C642.962 30.6227 642.263 30.5824 641.904 30.5824C639.23 30.5824 637.134 31.348 635.617 32.8791C634.1 34.37 633.341 36.6264 633.341 39.6484V55H624V22.4835H632.922V26.7747Z" fill="white"/>
<path d="M71 22.4765V54.5235H62.1007V50.8303C59.7912 53.6101 56.4465 55 52.0666 55C49.0404 55 46.2929 54.3249 43.8242 52.9747C41.3953 51.6245 39.4841 49.6986 38.0904 47.1968C36.6968 44.6949 36 41.796 36 38.5C36 35.204 36.6968 32.3051 38.0904 29.8032C39.4841 27.3014 41.3953 25.3755 43.8242 24.0253C46.2929 22.6751 49.0404 22 52.0666 22C56.1678 22 59.3732 23.2906 61.6826 25.8718V22.4765H71ZM53.6792 47.3754C56.0284 47.3754 57.9795 46.5812 59.5324 44.9928C61.0853 43.3646 61.8618 41.2004 61.8618 38.5C61.8618 35.7996 61.0853 33.6552 59.5324 32.0668C57.9795 30.4386 56.0284 29.6245 53.6792 29.6245C51.2901 29.6245 49.3191 30.4386 47.7662 32.0668C46.2133 33.6552 45.4369 35.7996 45.4369 38.5C45.4369 41.2004 46.2133 43.3646 47.7662 44.9928C49.3191 46.5812 51.2901 47.3754 53.6792 47.3754Z" fill="white"/>
<path d="M233 22.4765V54.5235H223.846V50.8303C221.471 53.6101 218.031 55 213.526 55C210.413 55 207.587 54.3249 205.048 52.9747C202.549 51.6245 200.584 49.6986 199.15 47.1968C197.717 44.6949 197 41.796 197 38.5C197 35.204 197.717 32.3051 199.15 29.8032C200.584 27.3014 202.549 25.3755 205.048 24.0253C207.587 22.6751 210.413 22 213.526 22C217.744 22 221.041 23.2906 223.416 25.8718V22.4765H233ZM215.184 47.3754C217.601 47.3754 219.608 46.5812 221.205 44.9928C222.802 43.3646 223.601 41.2004 223.601 38.5C223.601 35.7996 222.802 33.6552 221.205 32.0668C219.608 30.4386 217.601 29.6245 215.184 29.6245C212.727 29.6245 210.7 30.4386 209.102 32.0668C207.505 33.6552 206.706 35.7996 206.706 38.5C206.706 41.2004 207.505 43.3646 209.102 44.9928C210.7 46.5812 212.727 47.3754 215.184 47.3754Z" fill="white"/>
<path d="M262 52.9549C261.062 53.6366 259.9 54.1579 258.514 54.5188C257.168 54.8396 255.761 55 254.294 55C250.338 55 247.301 54.0175 245.18 52.0526C243.06 50.0877 242 47.2005 242 43.391V15H251.541V22.8797H259.676V30.0977H251.541V43.2707C251.541 44.6341 251.888 45.6967 252.581 46.4586C253.274 47.1805 254.273 47.5414 255.578 47.5414C257.046 47.5414 258.351 47.1404 259.492 46.3383L262 52.9549Z" fill="white"/>
<path d="M266.077 22.1868H274.923V55H266.077V22.1868ZM270.5 17.6125C268.875 17.6125 267.552 17.1042 266.531 16.0877C265.51 15.0712 265 13.8107 265 12.3062C265 10.8018 265.51 9.5413 266.531 8.52478C267.552 7.50826 268.875 7 270.5 7C272.125 7 273.448 7.48793 274.469 8.46379C275.49 9.43965 276 10.6595 276 12.1233C276 13.709 275.49 15.0305 274.469 16.0877C273.448 17.1042 272.125 17.6125 270.5 17.6125Z" fill="white"/>
<path d="M305.215 22C309.336 22 312.653 23.2088 315.167 25.6264C317.722 28.044 319 31.63 319 36.3846V55H309.356V37.8352C309.356 35.2564 308.779 33.3425 307.625 32.0934C306.472 30.804 304.802 30.1593 302.618 30.1593C300.187 30.1593 298.25 30.9048 296.807 32.3956C295.365 33.8462 294.644 36.022 294.644 38.9231V55H285V22.4835H294.211V26.2912C295.488 24.9212 297.075 23.8736 298.971 23.1484C300.867 22.3828 302.948 22 305.215 22Z" fill="white"/>
<path d="M359 22.4813V49.4332C359 55.369 357.447 59.7808 354.341 62.6685C351.235 65.5562 346.697 67 340.728 67C337.582 67 334.597 66.619 331.773 65.857C328.95 65.0949 326.61 63.992 324.755 62.5481L328.506 55.8102C329.877 56.9332 331.612 57.8155 333.709 58.4572C335.807 59.139 337.904 59.4799 340.002 59.4799C343.269 59.4799 345.669 58.738 347.202 57.254C348.775 55.8102 349.561 53.6043 349.561 50.6364V49.2527C347.101 51.9398 343.672 53.2834 339.276 53.2834C336.291 53.2834 333.548 52.6417 331.047 51.3583C328.587 50.0348 326.63 48.1898 325.178 45.8235C323.726 43.4572 323 40.7299 323 37.6417C323 34.5535 323.726 31.8262 325.178 29.4599C326.63 27.0936 328.587 25.2687 331.047 23.9853C333.548 22.6618 336.291 22 339.276 22C343.995 22 347.585 23.5441 350.045 26.6324V22.4813H359ZM341.151 45.5829C343.652 45.5829 345.689 44.861 347.262 43.4171C348.876 41.9332 349.682 40.008 349.682 37.6417C349.682 35.2754 348.876 33.3703 347.262 31.9265C345.689 30.4425 343.652 29.7005 341.151 29.7005C338.65 29.7005 336.593 30.4425 334.98 31.9265C333.366 33.3703 332.56 35.2754 332.56 37.6417C332.56 40.008 333.366 41.9332 334.98 43.4171C336.593 44.861 338.65 45.5829 341.151 45.5829Z" fill="white"/>
<path d="M403.231 47.5542C404.963 47.5542 406.488 47.3159 407.807 46.8393C409.168 46.3231 410.425 45.5289 411.58 44.4567L416.712 49.8177C413.579 53.2726 409.003 55 402.984 55C399.233 55 395.914 54.3051 393.028 52.9152C390.143 51.4856 387.916 49.5199 386.35 47.0181C384.783 44.5162 384 41.6769 384 38.5C384 35.3628 384.763 32.5433 386.288 30.0415C387.855 27.5 389.978 25.5343 392.657 24.1444C395.378 22.7148 398.429 22 401.809 22C404.984 22 407.869 22.6552 410.466 23.9657C413.064 25.2365 415.125 27.1029 416.65 29.565C418.217 31.9874 419 34.8664 419 38.2022L394.389 42.7888C395.09 44.3773 396.182 45.5686 397.666 46.3628C399.191 47.157 401.047 47.5542 403.231 47.5542ZM401.809 29.0289C399.377 29.0289 397.398 29.7834 395.873 31.2924C394.347 32.8014 393.544 34.8863 393.461 37.5469L409.663 34.509C409.209 32.8412 408.282 31.5108 406.88 30.518C405.478 29.5253 403.788 29.0289 401.809 29.0289Z" fill="white"/>
<path d="M665.682 47.5542C667.364 47.5542 668.846 47.3159 670.127 46.8393C671.449 46.3231 672.67 45.5289 673.792 44.4567L678.777 49.8177C675.734 53.2726 671.289 55 665.442 55C661.797 55 658.574 54.3051 655.77 52.9152C652.967 51.4856 650.804 49.5199 649.283 47.0181C647.761 44.5162 647 41.6769 647 38.5C647 35.3628 647.741 32.5433 649.223 30.0415C650.744 27.5 652.807 25.5343 655.41 24.1444C658.053 22.7148 661.016 22 664.3 22C667.384 22 670.187 22.6552 672.71 23.9657C675.233 25.2365 677.236 27.1029 678.717 29.565C680.239 31.9874 681 34.8664 681 38.2022L657.092 42.7888C657.773 44.3773 658.834 45.5686 660.276 46.3628C661.757 47.157 663.559 47.5542 665.682 47.5542ZM664.3 29.0289C661.938 29.0289 660.015 29.7834 658.534 31.2924C657.052 32.8014 656.271 34.8863 656.191 37.5469L671.929 34.509C671.489 32.8412 670.588 31.5108 669.226 30.518C667.865 29.5253 666.223 29.0289 664.3 29.0289Z" fill="white"/>
<path d="M92.9745 55C89.2105 55 86.2737 54.04 84.1642 52.12C82.0547 50.16 81 47.4 81 43.84V10H90.6788V43.3C90.6788 44.66 91.0304 45.72 91.7336 46.48C92.4781 47.2 93.5122 47.56 94.8358 47.56C95.3321 47.56 95.8285 47.5 96.3248 47.38C96.8625 47.26 97.2762 47.12 97.5657 46.96L98 54.22C96.3869 54.74 94.7117 55 92.9745 55Z" fill="white"/>
<path d="M117.745 55C114.354 55 111.298 54.3051 108.577 52.9152C105.895 51.4856 103.786 49.5199 102.248 47.0181C100.749 44.5162 100 41.6769 100 38.5C100 35.3231 100.749 32.4838 102.248 29.9819C103.786 27.4801 105.895 25.5343 108.577 24.1444C111.298 22.7148 114.354 22 117.745 22C121.097 22 124.015 22.7148 126.499 24.1444C129.023 25.5343 130.856 27.5397 132 30.1607L124.843 34.0325C123.187 31.0939 120.801 29.6245 117.686 29.6245C115.28 29.6245 113.289 30.4188 111.712 32.0072C110.134 33.5957 109.346 35.7599 109.346 38.5C109.346 41.2401 110.134 43.4043 111.712 44.9928C113.289 46.5812 115.28 47.3754 117.686 47.3754C120.84 47.3754 123.226 45.9061 124.843 42.9675L132 46.8989C130.856 49.4404 129.023 51.426 126.499 52.8556C124.015 54.2852 121.097 55 117.745 55Z" fill="white"/>
<path d="M440.299 55C436.802 55 433.651 54.3051 430.845 52.9152C428.079 51.4856 425.904 49.5199 424.318 47.0181C422.773 44.5162 422 41.6769 422 38.5C422 35.3231 422.773 32.4838 424.318 29.9819C425.904 27.4801 428.079 25.5343 430.845 24.1444C433.651 22.7148 436.802 22 440.299 22C443.756 22 446.765 22.7148 449.327 24.1444C451.93 25.5343 453.821 27.5397 455 30.1607L447.619 34.0325C445.911 31.0939 443.451 29.6245 440.238 29.6245C437.758 29.6245 435.704 30.4188 434.078 32.0072C432.451 33.5957 431.638 35.7599 431.638 38.5C431.638 41.2401 432.451 43.4043 434.078 44.9928C435.704 46.5812 437.758 47.3754 440.238 47.3754C443.492 47.3754 445.952 45.9061 447.619 42.9675L455 46.8989C453.821 49.4404 451.93 51.426 449.327 52.8556C446.765 54.2852 443.756 55 440.299 55Z" fill="white"/>
<path d="M475.03 55C471.579 55 468.472 54.3051 465.711 52.9152C462.99 51.4856 460.858 49.5199 459.315 47.0181C457.772 44.5162 457 41.6769 457 38.5C457 35.3231 457.772 32.4838 459.315 29.9819C460.858 27.4801 462.99 25.5343 465.711 24.1444C468.472 22.7148 471.579 22 475.03 22C478.482 22 481.569 22.7148 484.289 24.1444C487.01 25.5343 489.142 27.4801 490.685 29.9819C492.228 32.4838 493 35.3231 493 38.5C493 41.6769 492.228 44.5162 490.685 47.0181C489.142 49.5199 487.01 51.4856 484.289 52.9152C481.569 54.3051 478.482 55 475.03 55ZM475.03 47.3754C477.467 47.3754 479.457 46.5812 481 44.9928C482.584 43.3646 483.376 41.2004 483.376 38.5C483.376 35.7996 482.584 33.6552 481 32.0668C479.457 30.4386 477.467 29.6245 475.03 29.6245C472.594 29.6245 470.584 30.4386 469 32.0668C467.416 33.6552 466.624 35.7996 466.624 38.5C466.624 41.2004 467.416 43.3646 469 44.9928C470.584 46.5812 472.594 47.3754 475.03 47.3754Z" fill="white"/>
<path d="M598.03 55C594.579 55 591.472 54.3051 588.711 52.9152C585.99 51.4856 583.858 49.5199 582.315 47.0181C580.772 44.5162 580 41.6769 580 38.5C580 35.3231 580.772 32.4838 582.315 29.9819C583.858 27.4801 585.99 25.5343 588.711 24.1444C591.472 22.7148 594.579 22 598.03 22C601.482 22 604.569 22.7148 607.289 24.1444C610.01 25.5343 612.142 27.4801 613.685 29.9819C615.228 32.4838 616 35.3231 616 38.5C616 41.6769 615.228 44.5162 613.685 47.0181C612.142 49.5199 610.01 51.4856 607.289 52.9152C604.569 54.3051 601.482 55 598.03 55ZM598.03 47.3754C600.467 47.3754 602.457 46.5812 604 44.9928C605.584 43.3646 606.376 41.2004 606.376 38.5C606.376 35.7996 605.584 33.6552 604 32.0668C602.457 30.4386 600.467 29.6245 598.03 29.6245C595.594 29.6245 593.584 30.4386 592 32.0668C590.416 33.6552 589.624 35.7996 589.624 38.5C589.624 41.2004 590.416 43.3646 592 44.9928C593.584 46.5812 595.594 47.3754 598.03 47.3754Z" fill="white"/>
<path d="M170 22V54.5165H161.039V50.6484C159.787 52.0586 158.294 53.1465 156.558 53.9121C154.822 54.6374 152.945 55 150.927 55C146.648 55 143.257 53.7711 140.754 51.3132C138.251 48.8553 137 45.2088 137 40.3736V22H146.446V38.9835C146.446 44.2216 148.646 46.8407 153.046 46.8407C155.306 46.8407 157.123 46.1154 158.495 44.6648C159.868 43.174 160.554 40.978 160.554 38.0769V22H170Z" fill="white"/>
<path d="M191.27 55C187.727 55 184.964 54.04 182.978 52.12C180.993 50.16 180 47.4 180 43.84V10H189.109V43.3C189.109 44.66 189.44 45.72 190.102 46.48C190.803 47.2 191.776 47.56 193.022 47.56C193.489 47.56 193.956 47.5 194.423 47.38C194.929 47.26 195.319 47.12 195.591 46.96L196 54.22C194.482 54.74 192.905 55 191.27 55Z" fill="white"/>
</svg>
