<svg width="15" height="27" viewBox="0 0 15 27" fill="none" xmlns="http://www.w3.org/2000/svg">
<path d="M13.9905 8.39166V20.3565H10.573V18.9776C9.68612 20.0155 8.40168 20.5344 6.71968 20.5344C5.55757 20.5344 4.5025 20.2823 3.55447 19.7782C2.62172 19.2742 1.88776 18.5551 1.35258 17.621C0.817395 16.687 0.549805 15.6046 0.549805 14.3741C0.549805 13.1435 0.817395 12.0612 1.35258 11.1271C1.88776 10.1931 2.62172 9.47398 3.55447 8.96989C4.5025 8.46579 5.55757 8.21375 6.71968 8.21375C8.29465 8.21375 9.52556 8.6956 10.4124 9.65931V8.39166H13.9905ZM7.33896 17.6877C8.24113 17.6877 8.99038 17.3912 9.58673 16.7982C10.1831 16.1903 10.4812 15.3823 10.4812 14.3741C10.4812 13.3659 10.1831 12.5653 9.58673 11.9722C8.99038 11.3643 8.24113 11.0604 7.33896 11.0604C6.42151 11.0604 5.66461 11.3643 5.06827 11.9722C4.47192 12.5653 4.17375 13.3659 4.17375 14.3741C4.17375 15.3823 4.47192 16.1903 5.06827 16.7982C5.66461 17.3912 6.42151 17.6877 7.33896 17.6877Z" fill="white"/>
</svg>
