<svg width="18" height="27" viewBox="0 0 18 27" fill="none" xmlns="http://www.w3.org/2000/svg">
<path d="M11.5473 17.7545C12.1937 17.7545 12.7632 17.6655 13.2558 17.4876C13.7637 17.2948 14.2331 16.9983 14.6641 16.598L16.5803 18.5996C15.4106 19.8894 13.7021 20.5344 11.455 20.5344C10.0543 20.5344 8.81532 20.2749 7.73792 19.756C6.66052 19.2223 5.82938 18.4884 5.2445 17.5543C4.65963 16.6202 4.36719 15.5602 4.36719 14.3741C4.36719 13.2028 4.65193 12.1501 5.22141 11.2161C5.80629 10.2672 6.59895 9.53328 7.59939 9.01436C8.61523 8.48062 9.7542 8.21375 11.0163 8.21375C12.2014 8.21375 13.2788 8.45838 14.2485 8.94765C15.2182 9.42209 15.9877 10.1189 16.5572 11.0382C17.1421 11.9426 17.4345 13.0175 17.4345 14.2629L8.24584 15.9753C8.50749 16.5684 8.91536 17.0131 9.46946 17.3097C10.0389 17.6062 10.7316 17.7545 11.5473 17.7545ZM11.0163 10.838C10.1082 10.838 9.36941 11.1197 8.79993 11.6831C8.23044 12.2465 7.93031 13.0249 7.89953 14.0182L13.9484 12.884C13.7791 12.2613 13.4328 11.7646 12.9094 11.394C12.3861 11.0233 11.7551 10.838 11.0163 10.838Z" fill="white"/>
</svg>
