<svg width="16" height="27" viewBox="0 0 16 27" fill="none" xmlns="http://www.w3.org/2000/svg">
<path d="M7.27567 20.5344C5.98694 20.5344 4.82708 20.2749 3.79609 19.756C2.78027 19.2223 1.98429 18.4884 1.40815 17.5543C0.832015 16.6202 0.543945 15.5602 0.543945 14.3741C0.543945 13.188 0.832015 12.1279 1.40815 11.1938C1.98429 10.2598 2.78027 9.53328 3.79609 9.01436C4.82708 8.48062 5.98694 8.21375 7.27567 8.21375C8.5644 8.21375 9.71668 8.48062 10.7325 9.01436C11.7483 9.53328 12.5443 10.2598 13.1204 11.1938C13.6966 12.1279 13.9846 13.188 13.9846 14.3741C13.9846 15.5602 13.6966 16.6202 13.1204 17.5543C12.5443 18.4884 11.7483 19.2223 10.7325 19.756C9.71668 20.2749 8.5644 20.5344 7.27567 20.5344ZM7.27567 17.6877C8.18536 17.6877 8.92828 17.3912 9.50441 16.7982C10.0957 16.1903 10.3914 15.3823 10.3914 14.3741C10.3914 13.3659 10.0957 12.5653 9.50441 11.9722C8.92828 11.3643 8.18536 11.0604 7.27567 11.0604C6.36597 11.0604 5.61548 11.3643 5.02418 11.9722C4.43288 12.5653 4.13723 13.3659 4.13723 14.3741C4.13723 15.3823 4.43288 16.1903 5.02418 16.7982C5.61548 17.3912 6.36597 17.6877 7.27567 17.6877Z" fill="white"/>
</svg>
