<svg width="20" height="27" viewBox="0 0 20 27" fill="none" xmlns="http://www.w3.org/2000/svg">
<path d="M7.35379 20.5344C6.06506 20.5344 4.9052 20.2749 3.87422 19.756C2.8584 19.2223 2.06242 18.4884 1.48628 17.5543C0.91014 16.6202 0.62207 15.5602 0.62207 14.3741C0.62207 13.188 0.91014 12.1279 1.48628 11.1938C2.06242 10.2598 2.8584 9.53328 3.87422 9.01436C4.9052 8.48062 6.06506 8.21375 7.35379 8.21375C8.64252 8.21375 9.7948 8.48062 10.8106 9.01436C11.8264 9.53328 12.6224 10.2598 13.1986 11.1938C13.7747 12.1279 14.0628 13.188 14.0628 14.3741C14.0628 15.5602 13.7747 16.6202 13.1986 17.5543C12.6224 18.4884 11.8264 19.2223 10.8106 19.756C9.7948 20.2749 8.64252 20.5344 7.35379 20.5344ZM7.35379 17.6877C8.26348 17.6877 9.0064 17.3912 9.58254 16.7982C10.1738 16.1903 10.4695 15.3823 10.4695 14.3741C10.4695 13.3659 10.1738 12.5653 9.58254 11.9722C9.0064 11.3643 8.26348 11.0604 7.35379 11.0604C6.4441 11.0604 5.6936 11.3643 5.1023 11.9722C4.511 12.5653 4.21535 13.3659 4.21535 14.3741C4.21535 15.3823 4.511 16.1903 5.1023 16.7982C5.6936 17.3912 6.4441 17.6877 7.35379 17.6877Z" fill="white"/>
</svg>
