<svg width="79" height="79" viewBox="0 0 79 79" fill="none" xmlns="http://www.w3.org/2000/svg">
<path d="M51.834 28.6837C50.1209 27.3203 46.3209 25.1996 39.4996 25.1996C32.6783 25.1996 28.8783 27.3203 27.1652 28.6837H18.5996C18.5996 36.2276 26.0127 33.5917 26.0127 33.5917C25.639 49.1339 31.775 52.921 39.4996 53.7996C47.2242 52.8907 53.3603 49.1036 52.9865 33.5917C52.9865 33.5917 60.3996 36.2276 60.3996 28.6837H51.834Z" stroke="white" stroke-width="2" stroke-miterlimit="10"/>
<path d="M47.1754 1H31.8553L17.7018 6.86404L6.86404 17.7018L1 31.8553V47.1754L6.86404 61.3289L17.7018 72.1667L31.8553 78H47.1754L61.3289 72.1667L72.1667 61.3289L78 47.1754V31.8553L72.1667 17.7018L61.3289 6.86404L47.1754 1Z" stroke="white" stroke-width="2" stroke-miterlimit="10"/>
</svg>
