<svg width="200" height="200" viewBox="0 0 200 200" fill="none" xmlns="http://www.w3.org/2000/svg">
<path fill-rule="evenodd" clip-rule="evenodd" d="M100 200C155.229 200 200 155.229 200 100C200 44.7715 155.229 0 100 0C44.7715 0 0 44.7715 0 100C0 155.229 44.7715 200 100 200ZM100 190C149.706 190 190 149.706 190 100C190 50.2944 149.706 10 100 10C50.2944 10 10 50.2944 10 100C10 149.706 50.2944 190 100 190ZM38.5355 87.5356C40.4882 85.583 43.6539 85.583 45.6066 87.5356L86.6567 128.586L153.707 61.5356C155.66 59.583 158.825 59.583 160.778 61.5356C162.731 63.4883 162.731 66.6543 160.778 68.6069L90.6066 138.778C90.074 139.311 89.4513 139.698 88.7875 139.94C86.9058 140.912 84.5369 140.608 82.9595 139.031L38.5355 94.6064C36.5829 92.6538 36.5829 89.4883 38.5355 87.5356Z" fill="#51B27E"/>
</svg>
