<svg width="98" height="80" viewBox="0 0 98 80" fill="none" xmlns="http://www.w3.org/2000/svg">
<path d="M88.1518 30.6799C88.1518 6.36152 67.3001 14.557 67.3001 14.557C67.3001 -3.519 30.6655 -3.519 30.6655 14.557C30.6655 14.557 9.81381 6.39982 9.81381 30.6799C-2.01369 33.4755 -6.42981 73.7252 25.9038 68.6701C25.9038 68.6701 32.5472 82.9547 49.0212 76.9422C65.4568 82.9547 72.1386 68.6701 72.1386 68.6701C104.434 73.7252 100.018 33.4755 88.1518 30.6799Z" stroke="white" stroke-width="2" stroke-miterlimit="10"/>
<path d="M58.7852 52.0905C58.7852 52.0905 52.365 39.4001 48.9614 39.4001C45.5579 39.4001 39.1377 52.0905 39.1377 52.0905C34.0324 48.2427 22.1201 51.1286 22.1201 51.1286C22.1201 85.7959 49.0001 76.7314 49.0001 76.7314C49.0001 76.7314 75.8801 85.7959 75.8801 51.1286C75.8414 51.1286 63.9292 48.2427 58.7852 52.0905Z" stroke="white" stroke-width="2" stroke-miterlimit="10"/>
</svg>
