<svg width="239" height="236" viewBox="0 0 239 236" fill="none" xmlns="http://www.w3.org/2000/svg">
<path d="M144.254 229.496C145.077 228.992 145.807 228.305 146.43 227.428L150.526 230.465C148.897 233.212 146.076 234.959 142.087 235.699C139.597 236.165 137.306 236.089 135.208 235.478C133.11 234.868 131.38 233.807 130.02 232.289C128.659 230.77 127.776 228.924 127.361 226.756C126.953 224.612 127.107 222.583 127.806 220.667C128.506 218.752 129.666 217.15 131.273 215.852C132.879 214.555 134.808 213.701 137.053 213.281C139.159 212.892 141.157 212.976 143.048 213.54C144.939 214.105 146.553 215.128 147.89 216.6C149.227 218.081 150.119 219.958 150.542 222.239L134.808 228.405C135.477 229.404 136.361 230.083 137.46 230.442C138.559 230.801 139.835 230.846 141.288 230.572C142.448 230.358 143.432 229.999 144.254 229.496ZM134.324 220.362C133.509 221.583 133.24 223.109 133.532 224.933L143.886 220.858C143.371 219.775 142.579 218.981 141.526 218.47C140.465 217.966 139.282 217.829 137.975 218.073C136.353 218.378 135.139 219.141 134.324 220.362Z" fill="white"/>
<path d="M164.622 227.52C162.478 227.428 160.549 226.81 158.843 225.681C157.136 224.551 155.814 222.979 154.877 220.973C153.939 218.966 153.593 216.951 153.824 214.929C154.062 212.907 154.83 211.045 156.152 209.367C157.467 207.68 159.211 206.337 161.379 205.345C163.523 204.361 165.606 203.941 167.628 204.094C169.641 204.247 171.409 204.979 172.908 206.299L169.465 210.847C167.543 209.481 165.583 209.252 163.585 210.168C162.048 210.877 161.002 211.961 160.464 213.434C159.919 214.899 160.057 216.501 160.864 218.226C161.671 219.958 162.816 221.087 164.292 221.629C165.768 222.171 167.274 222.079 168.819 221.377C170.84 220.446 171.932 218.821 172.101 216.486L177.842 216.86C177.858 218.798 177.274 220.591 176.09 222.232C174.906 223.872 173.246 225.185 171.094 226.169C168.927 227.161 166.767 227.611 164.622 227.52Z" fill="white"/>
<path d="M189.564 213.632C187.488 214.059 185.482 213.937 183.553 213.266C181.624 212.594 179.948 211.396 178.534 209.695C177.12 207.985 176.259 206.131 175.959 204.124C175.66 202.117 175.921 200.141 176.743 198.195C177.566 196.25 178.888 194.533 180.709 193.045C182.539 191.549 184.483 190.595 186.551 190.176C188.618 189.756 190.617 189.886 192.546 190.557C194.475 191.229 196.15 192.427 197.565 194.128C198.979 195.838 199.84 197.692 200.14 199.699C200.439 201.705 200.186 203.682 199.371 205.612C198.564 207.543 197.242 209.26 195.42 210.755C193.599 212.243 191.646 213.205 189.564 213.632ZM194.121 202.766C194.229 201.225 193.683 199.729 192.484 198.279C191.278 196.83 189.909 196.013 188.365 195.822C186.82 195.632 185.405 196.066 184.114 197.119C182.831 198.172 182.124 199.477 182.001 201.026C181.878 202.575 182.423 204.071 183.622 205.521C184.829 206.97 186.205 207.787 187.757 207.962C189.31 208.138 190.732 207.703 192.023 206.65C193.314 205.605 194.014 204.307 194.121 202.766Z" fill="white"/>
<path d="M205.389 164.545L223.866 177.212L220.354 182.255L218.156 180.752C218.471 182.004 218.494 183.27 218.24 184.537C217.986 185.804 217.464 187.009 216.672 188.146C214.997 190.557 212.975 191.984 210.592 192.434C208.218 192.885 205.658 192.175 202.906 190.29L192.469 183.133L196.166 177.814L205.819 184.43C208.794 186.467 211.146 186.254 212.868 183.774C213.751 182.5 214.043 181.195 213.751 179.844C213.452 178.501 212.476 177.257 210.831 176.128L201.692 169.863L205.389 164.545Z" fill="white"/>
<path d="M232.106 155.121C232.305 155.884 232.344 156.739 232.221 157.685C232.098 158.631 231.844 159.57 231.475 160.493C230.476 162.981 229.077 164.644 227.271 165.476C225.473 166.308 223.344 166.239 220.884 165.27L202.584 158.036L204.997 152.031L210.077 154.038L212.13 148.918L216.78 150.757L214.728 155.877L223.221 159.234C224.097 159.585 224.865 159.631 225.519 159.387C226.172 159.142 226.664 158.608 226.994 157.784C227.363 156.861 227.44 155.938 227.21 155.014L232.106 155.121Z" fill="white"/>
<path d="M216.811 122.531L239 125.934L238.055 131.993L235.411 131.588C236.241 132.58 236.817 133.71 237.148 134.954C237.471 136.205 237.532 137.517 237.317 138.876C236.863 141.768 235.672 143.935 233.727 145.369C231.791 146.804 229.17 147.269 225.865 146.766L213.329 144.843L214.32 138.456L225.911 140.234C229.485 140.783 231.506 139.57 231.967 136.594C232.206 135.068 231.898 133.763 231.037 132.68C230.177 131.596 228.762 130.902 226.779 130.604L215.811 128.925L216.811 122.531Z" fill="white"/>
<path d="M216.142 108.117C215.481 106.85 215.081 105.37 214.95 103.661L220.938 103.188C220.938 103.905 220.953 104.393 220.969 104.637C221.115 106.484 221.753 107.888 222.875 108.849C223.997 109.811 225.603 110.215 227.678 110.047L238.247 109.216L238.762 115.656L216.38 117.419L215.888 111.268L218.84 111.039C217.702 110.353 216.803 109.384 216.142 108.117Z" fill="white"/>
<path d="M227.125 82.2572C226.533 81.5017 225.757 80.8608 224.819 80.3343L227.409 75.962C230.338 77.2744 232.39 79.8612 233.574 83.7222C234.312 86.1258 234.481 88.3997 234.104 90.5363C233.727 92.6728 232.851 94.4965 231.475 95.9998C230.107 97.5106 228.355 98.5865 226.226 99.2198C224.12 99.8532 222.075 99.9295 220.077 99.4411C218.086 98.9604 216.349 97.9913 214.874 96.5492C213.398 95.0994 212.329 93.2909 211.668 91.1238C211.046 89.0865 210.915 87.1102 211.269 85.1797C211.622 83.2568 212.476 81.5475 213.805 80.0672C215.143 78.5869 216.926 77.5033 219.162 76.8319L227.056 91.6885C227.986 90.9178 228.57 89.9716 228.808 88.8499C229.047 87.7283 228.954 86.4616 228.524 85.0576C228.186 83.9511 227.725 83.0202 227.125 82.2572ZM219.062 93.062C220.377 93.7335 221.929 93.8327 223.728 93.3443L218.517 83.5696C217.487 84.1953 216.78 85.0576 216.388 86.1564C215.996 87.2552 215.996 88.4379 216.38 89.7046C216.857 91.2688 217.756 92.3905 219.062 93.062Z" fill="white"/>
<path d="M205.966 45.4245C205.135 44.9362 204.175 44.6233 203.106 44.4783L203.898 39.4651C207.111 39.6177 209.978 41.2735 212.499 44.4326C214.067 46.4012 215.073 48.4462 215.512 50.5751C215.95 52.6964 215.804 54.7109 215.089 56.6185C214.374 58.5185 213.144 60.1591 211.4 61.5326C209.678 62.8908 207.802 63.7073 205.766 63.982C203.737 64.2567 201.761 63.9972 199.855 63.1884C197.949 62.3796 196.289 61.09 194.867 59.3121C193.537 57.6486 192.684 55.8478 192.3 53.9326C191.923 52.0097 192.077 50.1173 192.769 48.2478C193.46 46.3783 194.721 44.7302 196.558 43.288L209.393 54.2302C209.97 53.1771 210.162 52.0784 209.97 50.949C209.778 49.8197 209.217 48.6751 208.302 47.5306C207.58 46.6073 206.796 45.9129 205.966 45.4245ZM202.461 58.4117C203.929 58.5643 205.412 58.0836 206.903 56.9772L198.441 49.7816C197.718 50.743 197.373 51.8037 197.419 52.9635C197.465 54.131 197.895 55.2298 198.725 56.2675C199.747 57.5494 200.993 58.2591 202.461 58.4117Z" fill="white"/>
<path d="M194.621 28.4466C195.543 30.3695 195.905 32.3458 195.705 34.3755C195.505 36.4052 194.729 38.2976 193.384 40.0603C192.038 41.8229 190.417 43.0743 188.503 43.8221C186.589 44.5699 184.575 44.7607 182.462 44.402C180.348 44.0434 178.334 43.143 176.428 41.7161C174.545 40.2968 173.192 38.6715 172.378 36.8326C171.563 34.9936 171.394 33.1012 171.855 31.1707L177.52 32.0482C177.212 34.3755 177.935 36.1992 179.687 37.5193C181.04 38.5342 182.5 38.9386 184.053 38.7249C185.605 38.5113 186.973 37.6414 188.126 36.1229C189.287 34.6044 189.756 33.0707 189.541 31.5217C189.325 29.9727 188.541 28.6908 187.189 27.6759C185.413 26.3406 183.453 26.1498 181.301 27.096L178.934 21.892C180.655 20.9687 182.515 20.6329 184.529 20.9C186.543 21.1671 188.495 22.0064 190.378 23.4257C192.284 24.8374 193.699 26.5161 194.621 28.4466Z" fill="white"/>
<path d="M170.594 13.1169C171.947 14.7422 172.777 16.5582 173.077 18.5651C173.377 20.5719 173.1 22.6016 172.247 24.639C171.394 26.6763 170.133 28.3016 168.488 29.4996C166.836 30.7052 164.953 31.3996 162.839 31.5828C160.726 31.7735 158.581 31.4149 156.398 30.5069C154.215 29.5988 152.455 28.3398 151.118 26.7221C149.781 25.1044 148.958 23.2884 148.658 21.2815C148.359 19.2747 148.635 17.245 149.489 15.2076C150.349 13.1703 151.602 11.545 153.247 10.347C154.9 9.14137 156.775 8.44699 158.873 8.25623C160.971 8.06546 163.116 8.41647 165.299 9.3245C167.474 10.2325 169.242 11.4992 170.594 13.1169ZM158.789 14.2004C157.367 14.8261 156.291 16.0012 155.561 17.7333C154.83 19.4655 154.746 21.0526 155.299 22.4948C155.853 23.937 156.906 24.9747 158.443 25.6157C159.98 26.2566 161.471 26.2643 162.908 25.6462C164.346 25.0281 165.422 23.853 166.152 22.1209C166.882 20.3888 166.959 18.794 166.39 17.3518C165.821 15.902 164.768 14.8643 163.223 14.2233C161.694 13.5823 160.211 13.5747 158.789 14.2004Z" fill="white"/>
<path d="M119.505 22.1362L122.172 0L128.306 0.732531L127.991 3.36506C128.959 2.51044 130.074 1.89237 131.319 1.52611C132.564 1.15984 133.886 1.06064 135.262 1.22088C138.19 1.57189 140.411 2.67832 141.918 4.55543C143.432 6.43254 143.985 9.01929 143.586 12.308L142.079 24.8145L135.615 24.0438L137.006 12.4835C137.437 8.92009 136.146 6.95904 133.133 6.60041C131.588 6.41728 130.281 6.76828 129.22 7.66105C128.16 8.55382 127.514 9.98073 127.276 11.957L125.954 22.8992L119.505 22.1362Z" fill="white"/>
<path d="M98.5918 3.12862C99.1759 2.59448 99.9215 2.15954 100.821 1.82379C101.72 1.48805 102.673 1.26677 103.665 1.15994C106.347 0.869978 108.484 1.31255 110.067 2.50291C111.65 3.69327 112.588 5.59328 112.88 8.19529L115.032 27.6379L108.561 28.3399L107.961 22.9451L102.442 23.5479L101.897 18.6033L107.415 18.0005L106.416 8.98123C106.316 8.05031 106.001 7.35593 105.471 6.8981C104.94 6.44027 104.241 6.26476 103.357 6.35633C102.358 6.46316 101.505 6.83705 100.79 7.47039L98.5918 3.12862Z" fill="white"/>
<path d="M76.8634 31.9718L69.2004 11.0184L75.0034 8.92759L75.918 11.4228C76.3946 10.2248 77.1094 9.1794 78.0547 8.29425C79.0001 7.40911 80.13 6.72999 81.4366 6.2569C84.2112 5.2573 86.6938 5.2573 88.8997 6.2569C91.0979 7.2565 92.7735 9.31675 93.911 12.43L98.2382 24.2726L92.1201 26.4778L88.1157 15.5356C86.8783 12.1629 84.8415 10.9878 81.99 12.0103C80.5219 12.5368 79.5228 13.4372 78.9771 14.7039C78.439 15.9706 78.5082 17.5425 79.1923 19.4119L82.9815 29.7742L76.8634 31.9718Z" fill="white"/>
<path d="M64.2429 39.1295C63.4205 40.297 62.283 41.3424 60.8304 42.258L57.6176 37.2143C58.2555 36.8785 58.686 36.642 58.8935 36.5122C60.4691 35.5203 61.4222 34.307 61.7604 32.8725C62.0985 31.4379 61.7066 29.8432 60.5921 28.0958L54.9275 19.1986L60.4307 15.7419L72.4362 34.5817L67.179 37.8857L65.5957 35.3982C65.5111 36.7106 65.0654 37.962 64.2429 39.1295Z" fill="white"/>
<path d="M36.0583 41.5863C35.6586 42.4638 35.4511 43.4406 35.4281 44.5165L30.3245 44.2875C30.1247 41.1056 31.4621 38.0916 34.3443 35.253C36.1429 33.4827 38.0797 32.2618 40.1626 31.598C42.2379 30.9341 44.2747 30.8502 46.2577 31.3462C48.2407 31.8421 50.0161 32.8723 51.5841 34.4442C53.129 35.9932 54.1589 37.7558 54.6585 39.7321C55.1581 41.7084 55.112 43.6771 54.5125 45.6458C53.9129 47.6145 52.8062 49.4 51.1844 50.9948C49.6626 52.4904 47.964 53.5357 46.0809 54.1233C44.1978 54.7108 42.284 54.7643 40.3394 54.2912C38.3949 53.8181 36.5963 52.7498 34.9515 51.1016L44.4822 37.2293C43.36 36.7791 42.2456 36.7104 41.1311 37.0233C40.0166 37.3438 38.9406 38.0152 37.8876 39.0454C37.0729 39.8618 36.458 40.7088 36.0583 41.5863ZM49.4474 43.6084C49.432 42.1434 48.7941 40.7317 47.5182 39.3811L41.2541 48.5225C42.2917 49.1329 43.3985 49.3542 44.5591 49.1787C45.7196 49.0108 46.7726 48.4538 47.7257 47.5229C48.8863 46.3783 49.4627 45.0735 49.4474 43.6084Z" fill="white"/>
<path d="M13.2232 77.4117C13.177 78.3732 13.3385 79.3575 13.7151 80.3647L8.88056 82.0129C7.51245 79.1209 7.6508 75.8322 9.28023 72.139C10.3025 69.8346 11.6552 67.9956 13.3385 66.6221C15.0294 65.2486 16.8817 64.4246 18.9108 64.1651C20.9399 63.9057 22.9767 64.2185 25.0135 65.1037C27.0273 65.9812 28.6336 67.2479 29.825 68.9037C31.024 70.5595 31.708 72.4061 31.8771 74.4587C32.0462 76.5113 31.6773 78.5716 30.755 80.6471C29.8941 82.5928 28.6951 84.18 27.1656 85.4161C25.6284 86.6446 23.876 87.4001 21.8853 87.6595C19.9023 87.9266 17.8348 87.5908 15.6981 86.6599L19.4412 70.2772C18.2344 70.2619 17.1661 70.6053 16.2515 71.3073C15.3291 72.0093 14.5759 73.0318 13.9841 74.3671C13.5229 75.443 13.2693 76.4503 13.2232 77.4117ZM26.4277 74.4129C25.8744 73.0547 24.7522 71.9788 23.069 71.1852L20.6171 81.9748C21.8084 82.1655 22.9152 81.9671 23.9298 81.3872C24.9443 80.8073 25.7206 79.9069 26.2587 78.6936C26.9273 77.1981 26.9811 75.7711 26.4277 74.4129Z" fill="white"/>
<path d="M3.38505 95.2748C4.66861 93.5656 6.25962 92.3294 8.16575 91.5587C10.0719 90.7881 12.1164 90.5897 14.3146 90.9483C16.5128 91.3069 18.3882 92.1539 19.9407 93.4816C21.4933 94.8094 22.6078 96.4881 23.2765 98.5178C23.9375 100.54 24.0758 102.73 23.6915 105.072C23.3072 107.392 22.4848 109.33 21.2243 110.902C19.9638 112.474 18.3574 113.504 16.4205 114L14.5605 108.613C16.7818 107.797 18.073 106.316 18.4266 104.164C18.7033 102.501 18.3805 101.036 17.4658 99.7692C16.5512 98.5025 15.1447 97.709 13.2462 97.4037C11.3478 97.0985 9.76444 97.3961 8.48856 98.3041C7.21268 99.2122 6.4364 100.502 6.1597 102.165C5.79846 104.348 6.544 106.156 8.38864 107.606L4.85308 112.108C3.22364 111.032 2.06305 109.544 1.36362 107.652C0.664195 105.759 0.502789 103.653 0.88709 101.341C1.27139 99.0061 2.10148 96.9841 3.38505 95.2748Z" fill="white"/>
<path d="M0.948564 123.561C1.7556 121.615 2.98536 120.036 4.63017 118.83C6.27498 117.625 8.21185 116.915 10.4254 116.709C12.639 116.503 14.6681 116.839 16.5128 117.724C18.3574 118.609 19.8562 119.929 21.0168 121.699C22.1774 123.462 22.8614 125.515 23.0843 127.857C23.3072 130.192 23.0074 132.329 22.2004 134.267C21.3934 136.197 20.1636 137.769 18.5111 138.975C16.8663 140.18 14.9294 140.89 12.7159 141.096C10.5023 141.302 8.47318 140.959 6.62853 140.081C4.78389 139.196 3.28511 137.884 2.13221 136.129C0.979308 134.374 0.287566 132.329 0.0723576 129.994C-0.150537 127.651 0.141532 125.507 0.948564 123.561ZM7.45094 133.405C8.67302 134.358 10.2256 134.747 12.1087 134.572C13.9917 134.396 15.4444 133.733 16.4666 132.565C17.4889 131.405 17.927 129.994 17.7656 128.345C17.6119 126.697 16.9201 125.385 15.698 124.416C14.476 123.447 12.9234 123.05 11.0403 123.225C9.15723 123.401 7.70458 124.072 6.68234 125.255C5.66009 126.43 5.22968 127.842 5.3834 129.498C5.53712 131.146 6.22886 132.443 7.45094 133.405Z" fill="white"/>
<path d="M32.9455 164.156L11.9934 172.175L9.77219 166.452L12.2625 165.499C11.0404 165.048 9.97971 164.362 9.06507 163.431C8.15812 162.507 7.45101 161.401 6.95142 160.111C5.89075 157.38 5.84463 154.915 6.80538 152.71C7.76613 150.505 9.81061 148.811 12.9235 147.613L24.7599 143.08L27.1042 149.108L16.1593 153.297C12.7851 154.587 11.6399 156.64 12.7313 159.448C13.2924 160.89 14.2147 161.866 15.506 162.385C16.7895 162.897 18.3728 162.797 20.2405 162.08L30.6013 158.12L32.9455 164.156Z" fill="white"/>
<path d="M25.7514 191.389C24.9981 191.122 24.268 190.679 23.5455 190.038C22.8307 189.405 22.1851 188.672 21.624 187.848C20.1098 185.628 19.518 183.545 19.8331 181.599C20.156 179.653 21.4088 177.944 23.5993 176.471L39.9167 165.521L43.5599 170.878L39.0328 173.915L42.138 178.478L37.9875 181.263L34.8824 176.7L27.3116 181.782C26.5277 182.309 26.0588 182.911 25.8897 183.583C25.7283 184.254 25.8974 184.964 26.397 185.697C26.9581 186.521 27.6883 187.101 28.5875 187.429L25.7514 191.389Z" fill="white"/>
<path d="M61.5297 197.104L46.2576 213.441L41.7305 209.267L43.5444 207.322C42.2532 207.451 40.985 207.291 39.7629 206.864C38.5331 206.429 37.411 205.742 36.3964 204.804C34.2367 202.812 33.0991 200.614 32.9915 198.218C32.8839 195.815 33.96 193.404 36.235 190.977L44.8664 181.744L49.6394 186.139L41.6537 194.67C39.1941 197.303 39.0712 199.645 41.3001 201.69C42.4453 202.743 43.7058 203.216 45.0893 203.117C46.4728 203.018 47.8486 202.24 49.209 200.782L56.7644 192.709L61.5297 197.104Z" fill="white"/>
<path d="M73.9119 204.666C75.3339 204.834 76.7942 205.345 78.293 206.192L75.3185 211.381C74.719 210.977 74.3116 210.717 74.0887 210.587C72.467 209.672 70.9451 209.405 69.5079 209.779C68.0706 210.153 66.8408 211.251 65.8032 213.044L60.5536 222.186L54.8967 218.981L66.0184 199.615L71.4217 202.675L69.9536 205.231C71.168 204.689 72.49 204.498 73.9119 204.666Z" fill="white"/>
<path d="M89.2686 228.26C90.237 228.199 91.2055 227.932 92.1739 227.451L94.3491 232.037C91.6051 233.7 88.3002 233.929 84.4187 232.716C82.0053 231.961 80.0146 230.831 78.4544 229.313C76.8941 227.794 75.8719 226.054 75.3876 224.078C74.9034 222.102 74.9957 220.065 75.6643 217.951C76.3253 215.868 77.4167 214.143 78.9386 212.785C80.4604 211.419 82.2436 210.542 84.2804 210.152C86.3172 209.763 88.4231 209.901 90.5983 210.58C92.6428 211.213 94.3644 212.228 95.7633 213.601C97.1621 214.975 98.1075 216.631 98.5917 218.561C99.076 220.492 98.9684 222.567 98.2689 224.78L81.4596 222.88C81.5749 224.078 82.036 225.085 82.8431 225.917C83.6424 226.749 84.7492 227.382 86.1558 227.817C87.2625 228.176 88.3078 228.321 89.2686 228.26ZM84.8261 215.563C83.5271 216.257 82.5741 217.478 81.9592 219.225L93.0271 220.461C93.0885 219.263 92.7657 218.195 92.074 217.256C91.3823 216.318 90.3984 215.646 89.1226 215.25C87.5546 214.761 86.125 214.86 84.8261 215.563Z" fill="white"/>
</svg>
