<svg width="71" height="80" viewBox="0 0 71 80" fill="none" xmlns="http://www.w3.org/2000/svg">
<path d="M18.0586 21.3266L27.2979 15.783" stroke="white" stroke-width="2" stroke-miterlimit="10"/>
<path d="M43.9287 63.8274L53.168 58.2838" stroke="white" stroke-width="2" stroke-miterlimit="10"/>
<path d="M10.7734 34.4627C15.9349 34.4627 20.1191 30.26 20.1191 25.0758C20.1191 19.8916 15.9349 15.689 10.7734 15.689C5.61195 15.689 1.42773 19.8916 1.42773 25.0758C1.42773 30.26 5.61195 34.4627 10.7734 34.4627Z" stroke="white" stroke-width="2" stroke-miterlimit="10"/>
<path d="M35.8584 78.0712C41.0199 78.0712 45.2041 73.8685 45.2041 68.6843C45.2041 63.5001 41.0199 59.2975 35.8584 59.2975C30.6969 59.2975 26.5127 63.5001 26.5127 68.6843C26.5127 73.8685 30.6969 78.0712 35.8584 78.0712Z" stroke="white" stroke-width="2" stroke-miterlimit="10"/>
<path d="M60.4531 63.5453C65.6146 63.5453 69.7988 59.3427 69.7988 54.1584C69.7988 48.9742 65.6146 44.7716 60.4531 44.7716C55.2916 44.7716 51.1074 48.9742 51.1074 54.1584C51.1074 59.3427 55.2916 63.5453 60.4531 63.5453Z" stroke="white" stroke-width="2" stroke-miterlimit="10"/>
<path d="M35.5967 19.7737C40.7582 19.7737 44.9424 15.5711 44.9424 10.3868C44.9424 5.20263 40.7582 1 35.5967 1C30.4352 1 26.251 5.20263 26.251 10.3868C26.251 15.5711 30.4352 19.7737 35.5967 19.7737Z" stroke="white" stroke-width="2" stroke-miterlimit="10"/>
<path d="M10.7734 63.5453C15.9349 63.5453 20.1191 59.3427 20.1191 54.1584C20.1191 48.9742 15.9349 44.7716 10.7734 44.7716C5.61195 44.7716 1.42773 48.9742 1.42773 54.1584C1.42773 59.3427 5.61195 63.5453 10.7734 63.5453Z" stroke="white" stroke-width="2" stroke-miterlimit="10"/>
<path d="M60.4531 34.4627C65.6146 34.4627 69.7988 30.26 69.7988 25.0758C69.7988 19.8916 65.6146 15.689 60.4531 15.689C55.2916 15.689 51.1074 19.8916 51.1074 25.0758C51.1074 30.26 55.2916 34.4627 60.4531 34.4627Z" stroke="white" stroke-width="2" stroke-miterlimit="10"/>
</svg>
