<?xml version="1.0" encoding="utf-8"?>
<!-- Generator: Adobe Illustrator 25.2.2, SVG Export Plug-In . SVG Version: 6.00 Build 0)  -->
<svg version="1.1" id="Layer_1" xmlns="http://www.w3.org/2000/svg" xmlns:xlink="http://www.w3.org/1999/xlink" x="0px" y="0px"
	 viewBox="0 0 576 576" style="enable-background:new 0 0 576 576;" xml:space="preserve">
<style type="text/css">
	.st0{fill:#E6E6E6;}
	.st1{fill:#BCA2A2;}
	.st2{fill:#CCCCCC;}
	.st3{fill:#FFD039;}
	.st4{fill:#333333;}
</style>
<g>
	<g>
		<rect x="33.9" y="442.9" class="st0" width="281.8" height="16.4"/>
		<rect x="63.4" y="306.1" class="st1" width="33.3" height="134.9"/>
		<polygon class="st0" points="146.8,256.7 146.8,288.1 130.1,288.1 130.1,441 96.7,441 96.7,306.1 96.7,218.8 115.6,218.8 
			146.8,218.8 		"/>
		<polygon class="st2" points="180.1,394.2 180.1,394.2 163.4,394.2 163.4,441 146.8,441 130.1,441 130.1,288.1 146.8,288.1 
			180.1,288.1 		"/>
		<polygon class="st1" points="265.1,394.2 265.1,441 222.7,441 180.1,441 163.4,441 163.4,394.2 180.1,394.2 222.7,394.2 		"/>
		<polygon class="st0" points="286.2,263.6 286.2,441 265.1,441 265.1,394.2 222.7,394.2 222.7,394.2 222.7,263.6 233.3,263.6 
			275.7,263.6 		"/>
		<polygon class="st2" points="275.7,229.9 275.7,263.6 233.3,263.6 233.3,229.9 245.4,229.9 263.6,229.9 		"/>
		<rect x="245.4" y="213.5" class="st0" width="18.3" height="16.4"/>
		<path class="st3" d="M147.3,192.3c17.8,0,32.2,14.4,32.2,32.2s-14.4,32.2-32.2,32.2c-0.2,0-0.4,0-0.5,0v-37.9h-31.2
			C118.3,203.7,131.4,192.3,147.3,192.3z"/>
		<g>
			<path class="st4" d="M33.9,445.8h281.8c2.7,0,4.8-2.2,4.8-4.8s-2.2-4.8-4.8-4.8H291V263.6c0-2.7-2.2-4.8-4.8-4.8h-5.8v-28.9
				c0-2.7-2.2-4.8-4.8-4.8h-7.2v-11.5c0-2.7-2.2-4.8-4.8-4.8h-4.3V202c0-2.7-2.2-4.8-4.8-4.8c-2.7,0-4.8,2.2-4.8,4.8v6.7h-4.3
				c-2.7,0-4.8,2.2-4.8,4.8v11.5h-7.2c-2.7,0-4.8,2.2-4.8,4.8v28.9h-5.8c-2.7,0-4.8,2.2-4.8,4.8v125.8h-33V288.1
				c0-2.7-2.2-4.8-4.8-4.8h-28.5v-22c18.4-2.1,32.8-17.8,32.8-36.8c0-20.4-16.6-37-37-37c-16.6,0-30.9,10.9-35.5,26.5h-15
				c-2.7,0-4.8,2.2-4.8,4.8v82.5H63.4c-2.7,0-4.8,2.2-4.8,4.8v130.1H33.9c-2.7,0-4.8,2.2-4.8,4.8S31.2,445.8,33.9,445.8z
				 M250.2,218.4h8.7v6.7h-8.7V218.4z M238.1,234.7h32.7v24h-32.7V234.7z M260.3,399v37.2h-92V399H260.3z M227.6,268.4h53.9v167.8
				h-11.5v-42c0-2.7-2.2-4.8-4.8-4.8h-37.5L227.6,268.4L227.6,268.4z M175.3,389.4h-11.9c-2.7,0-4.8,2.2-4.8,4.8v42h-23.7V293h40.4
				L175.3,389.4L175.3,389.4z M147.3,197.1c15.1,0,27.4,12.3,27.4,27.4c0,13.7-10,25-23.1,27.1v-32.8c0-2.7-2.2-4.8-4.8-4.8H122
				C126.1,203.9,136,197.1,147.3,197.1z M101.6,223.6h40.4v59.7h-7.1v-51.5c0-2.7-2.2-4.8-4.8-4.8s-4.8,2.2-4.8,4.8v196.1
				c0,0,0,0,0,0.1v8.2h-23.7L101.6,223.6L101.6,223.6z M68.2,422.3h12.4c2.7,0,4.8-2.2,4.8-4.8s-2.2-4.8-4.8-4.8H68.2v-8.5h12.4
				c2.7,0,4.8-2.2,4.8-4.8s-2.2-4.8-4.8-4.8H68.2v-8.5h12.4c2.7,0,4.8-2.2,4.8-4.8s-2.2-4.8-4.8-4.8H68.2V368h12.4
				c2.7,0,4.8-2.2,4.8-4.8c0-2.7-2.2-4.8-4.8-4.8H68.2v-8.5h12.4c2.7,0,4.8-2.2,4.8-4.8s-2.2-4.8-4.8-4.8H68.2v-8.5h12.4
				c2.7,0,4.8-2.2,4.8-4.8s-2.2-4.8-4.8-4.8H68.2v-11.4h23.7v125.3H68.2V422.3z"/>
			<path class="st4" d="M315.7,454.5H33.9c-2.7,0-4.8,2.2-4.8,4.8s2.2,4.8,4.8,4.8h281.8c2.7,0,4.8-2.2,4.8-4.8
				S318.4,454.5,315.7,454.5z"/>
			<path class="st4" d="M113.4,432.7c2.7,0,4.8-2.2,4.8-4.8V231.9c0-2.7-2.2-4.8-4.8-4.8c-2.7,0-4.8,2.2-4.8,4.8v196.1
				C108.6,430.6,110.8,432.7,113.4,432.7z"/>
			<path class="st4" d="M146.8,432.9c2.7,0,4.8-2.2,4.8-4.8V301c0-2.7-2.2-4.8-4.8-4.8s-4.8,2.2-4.8,4.8v127.1
				C141.9,430.8,144.1,432.9,146.8,432.9z"/>
			<path class="st4" d="M163.4,381.9c2.7,0,4.8-2.2,4.8-4.8V301c0-2.7-2.2-4.8-4.8-4.8s-4.8,2.2-4.8,4.8v76.1
				C158.6,379.7,160.8,381.9,163.4,381.9z"/>
			<path class="st4" d="M243.9,274.8c-2.7,0-4.8,2.2-4.8,4.8v97.5c0,2.7,2.2,4.8,4.8,4.8s4.8-2.2,4.8-4.8v-97.5
				C248.7,276.9,246.6,274.8,243.9,274.8z"/>
			<path class="st4" d="M269.9,377.1v-97.5c0-2.7-2.2-4.8-4.8-4.8c-2.7,0-4.8,2.2-4.8,4.8v97.5c0,2.7,2.2,4.8,4.8,4.8
				C267.7,381.9,269.9,379.7,269.9,377.1z"/>
			<path class="st4" d="M247.4,238.9c-2.7,0-4.8,2.2-4.8,4.8v6c0,2.7,2.2,4.8,4.8,4.8s4.8-2.2,4.8-4.8v-6
				C252.2,241.1,250.1,238.9,247.4,238.9z"/>
			<path class="st4" d="M261.5,238.9c-2.7,0-4.8,2.2-4.8,4.8v6c0,2.7,2.2,4.8,4.8,4.8s4.8-2.2,4.8-4.8v-6
				C266.4,241.1,264.2,238.9,261.5,238.9z"/>
			<path class="st4" d="M179,414.8h70.5c2.7,0,4.8-2.2,4.8-4.8s-2.2-4.8-4.8-4.8H179c-2.7,0-4.8,2.2-4.8,4.8S176.3,414.8,179,414.8z
				"/>
			<path class="st4" d="M179,429.3h70.5c2.7,0,4.8-2.2,4.8-4.8s-2.2-4.8-4.8-4.8H179c-2.7,0-4.8,2.2-4.8,4.8S176.3,429.3,179,429.3z
				"/>
		</g>
	</g>
</g>
<g>
	<g>
		<rect x="271.2" y="442.9" class="st0" width="281.8" height="16.4"/>
		<rect x="300.7" y="306.1" class="st1" width="33.3" height="134.9"/>
		<polygon class="st0" points="384,256.7 384,288.1 367.3,288.1 367.3,441 334,441 334,306.1 334,218.8 352.8,218.8 384,218.8 		"/>
		<polygon class="st2" points="417.4,394.2 417.4,394.2 400.7,394.2 400.7,441 384,441 367.3,441 367.3,288.1 384,288.1 
			417.4,288.1 		"/>
		<polygon class="st1" points="502.3,394.2 502.3,441 460,441 417.4,441 400.7,441 400.7,394.2 417.4,394.2 460,394.2 		"/>
		<polygon class="st0" points="523.5,263.6 523.5,441 502.3,441 502.3,394.2 460,394.2 460,394.2 460,263.6 470.6,263.6 
			512.9,263.6 		"/>
		<polygon class="st2" points="512.9,229.9 512.9,263.6 470.6,263.6 470.6,229.9 482.6,229.9 500.9,229.9 		"/>
		<rect x="482.6" y="213.5" class="st0" width="18.3" height="16.4"/>
		<g>
			<path class="st4" d="M553,436.2h-24.7V263.6c0-2.7-2.2-4.8-4.8-4.8h-5.8v-28.9c0-2.7-2.2-4.8-4.8-4.8h-7.2v-11.5
				c0-2.7-2.2-4.8-4.8-4.8h-4.3V202c0-2.7-2.2-4.8-4.8-4.8c-2.7,0-4.8,2.2-4.8,4.8v6.7h-4.3c-2.7,0-4.8,2.2-4.8,4.8v11.5h-7.2
				c-2.7,0-4.8,2.2-4.8,4.8v28.9H460c-2.7,0-4.8,2.2-4.8,4.8v125.8h-33V288.1c0-2.7-2.2-4.8-4.8-4.8h-28.5v-21.4h0v-10.5h0v-32.7
				c0-2.7-2.2-4.8-4.8-4.8h-24.8c0,0,0,0,0,0h-4.9v0H349c0,0,0,0,0,0h-15c-2.7,0-4.8,2.2-4.8,4.8v82.5h-28.5c-2.7,0-4.8,2.2-4.8,4.8
				v130.1h-24.7c-2.7,0-4.8,2.2-4.8,4.8s2.2,4.8,4.8,4.8H553c2.7,0,4.8-2.2,4.8-4.8S555.6,436.2,553,436.2z M329.2,436.2h-23.7
				v-13.9h12.4c2.7,0,4.8-2.2,4.8-4.8s-2.2-4.8-4.8-4.8h-12.4v-8.5h12.4c2.7,0,4.8-2.2,4.8-4.8s-2.2-4.8-4.8-4.8h-12.4v-8.5h12.4
				c2.7,0,4.8-2.2,4.8-4.8s-2.2-4.8-4.8-4.8h-12.4V368h12.4c2.7,0,4.8-2.2,4.8-4.8s-2.2-4.8-4.8-4.8h-12.4v-8.5h12.4
				c2.7,0,4.8-2.2,4.8-4.8s-2.2-4.8-4.8-4.8h-12.4v-8.5h12.4c2.7,0,4.8-2.2,4.8-4.8s-2.2-4.8-4.8-4.8h-12.4v-11.4h23.7V436.2z
				 M487.4,218.4h8.7v6.7h-8.7V218.4z M475.4,234.7h32.7v24h-32.7V234.7z M367.3,227c-2.7,0-4.8,2.2-4.8,4.8v196.1c0,0,0,0,0,0.1
				v8.2h-23.7V223.6h40.4v59.7h-7.1v-51.5C372.2,229.2,370,227,367.3,227z M395.9,394.2v42h-23.7V293h40.4v96.4h-11.9
				C398,389.4,395.9,391.5,395.9,394.2z M497.5,436.2h-92V399h92V436.2z M518.7,436.2h-11.5v-42c0-2.7-2.2-4.8-4.8-4.8h-37.5v-121
				h53.9V436.2z"/>
			<path class="st4" d="M553,454.5H271.2c-2.7,0-4.8,2.2-4.8,4.8s2.2,4.8,4.8,4.8H553c2.7,0,4.8-2.2,4.8-4.8S555.6,454.5,553,454.5z
				"/>
			<path class="st4" d="M350.7,432.7c2.7,0,4.8-2.2,4.8-4.8V231.9c0-2.7-2.2-4.8-4.8-4.8s-4.8,2.2-4.8,4.8v196.1
				C345.9,430.6,348,432.7,350.7,432.7z"/>
			<path class="st4" d="M384,432.9c2.7,0,4.8-2.2,4.8-4.8V301c0-2.7-2.2-4.8-4.8-4.8s-4.8,2.2-4.8,4.8v127.1
				C379.2,430.8,381.4,432.9,384,432.9z"/>
			<path class="st4" d="M400.7,381.9c2.7,0,4.8-2.2,4.8-4.8V301c0-2.7-2.2-4.8-4.8-4.8s-4.8,2.2-4.8,4.8v76.1
				C395.9,379.7,398,381.9,400.7,381.9z"/>
			<path class="st4" d="M481.2,274.8c-2.7,0-4.8,2.2-4.8,4.8v97.5c0,2.7,2.2,4.8,4.8,4.8s4.8-2.2,4.8-4.8v-97.5
				C486,276.9,483.8,274.8,481.2,274.8z"/>
			<path class="st4" d="M507.1,377.1v-97.5c0-2.7-2.2-4.8-4.8-4.8s-4.8,2.2-4.8,4.8v97.5c0,2.7,2.2,4.8,4.8,4.8
				S507.1,379.7,507.1,377.1z"/>
			<path class="st4" d="M484.7,238.9c-2.7,0-4.8,2.2-4.8,4.8v6c0,2.7,2.2,4.8,4.8,4.8s4.8-2.2,4.8-4.8v-6
				C489.5,241.1,487.4,238.9,484.7,238.9z"/>
			<path class="st4" d="M498.8,238.9c-2.7,0-4.8,2.2-4.8,4.8v6c0,2.7,2.2,4.8,4.8,4.8s4.8-2.2,4.8-4.8v-6
				C503.6,241.1,501.5,238.9,498.8,238.9z"/>
			<path class="st4" d="M416.2,414.8h70.5c2.7,0,4.8-2.2,4.8-4.8s-2.2-4.8-4.8-4.8h-70.5c-2.7,0-4.8,2.2-4.8,4.8
				S413.6,414.8,416.2,414.8z"/>
			<path class="st4" d="M416.2,429.3h70.5c2.7,0,4.8-2.2,4.8-4.8s-2.2-4.8-4.8-4.8h-70.5c-2.7,0-4.8,2.2-4.8,4.8
				S413.6,429.3,416.2,429.3z"/>
		</g>
	</g>
</g>
</svg>
